<svg xmlns="http://www.w3.org/2000/svg" width="1100" height="860" viewBox="0 0 1100 860">
<rect width="100%" height="100%" fill="#ffffff"/>
<text x="24" y="36" font-family="Apple SD Gothic Neo, Arial, sans-serif" font-size="24" font-weight="700" fill="#222">직무_중분류</text>
<text x="24" y="58" font-family="Apple SD Gothic Neo, Arial, sans-serif" font-size="13" fill="#666">총 14,774건, 상위 25개 표시</text>
<text x="24" y="88" font-family="Apple SD Gothic Neo, Arial, sans-serif" font-size="13" fill="#333">일반·미분류</text>
<rect x="260" y="74" width="760" height="18" rx="3" fill="#4f7cac"/>
<text x="1028" y="88" font-family="Arial, sans-serif" font-size="12" fill="#333">1,998 (13.5%)</text>
<text x="24" y="118" font-family="Apple SD Gothic Neo, Arial, sans-serif" font-size="13" fill="#333">연구원</text>
<rect x="260" y="104" width="533" height="18" rx="3" fill="#4f7cac"/>
<text x="801" y="118" font-family="Arial, sans-serif" font-size="12" fill="#333">1,402 (9.5%)</text>
<text x="24" y="148" font-family="Apple SD Gothic Neo, Arial, sans-serif" font-size="13" fill="#333">생산관리</text>
<rect x="260" y="134" width="472" height="18" rx="3" fill="#4f7cac"/>
<text x="740" y="148" font-family="Arial, sans-serif" font-size="12" fill="#333">1,242 (8.4%)</text>
<text x="24" y="178" font-family="Apple SD Gothic Neo, Arial, sans-serif" font-size="13" fill="#333">B2B 영업</text>
<rect x="260" y="164" width="435" height="18" rx="3" fill="#4f7cac"/>
<text x="703" y="178" font-family="Arial, sans-serif" font-size="12" fill="#333">1,145 (7.8%)</text>
<text x="24" y="208" font-family="Apple SD Gothic Neo, Arial, sans-serif" font-size="13" fill="#333">전기·전자·반도체</text>
<rect x="260" y="194" width="431" height="18" rx="3" fill="#4f7cac"/>
<text x="699" y="208" font-family="Arial, sans-serif" font-size="12" fill="#333">1,135 (7.7%)</text>
<text x="24" y="238" font-family="Apple SD Gothic Neo, Arial, sans-serif" font-size="13" fill="#333">총무</text>
<rect x="260" y="224" width="425" height="18" rx="3" fill="#4f7cac"/>
<text x="693" y="238" font-family="Arial, sans-serif" font-size="12" fill="#333">1,119 (7.6%)</text>
<text x="24" y="268" font-family="Apple SD Gothic Neo, Arial, sans-serif" font-size="13" fill="#333">공공행정</text>
<rect x="260" y="254" width="307" height="18" rx="3" fill="#4f7cac"/>
<text x="575" y="268" font-family="Arial, sans-serif" font-size="12" fill="#333">808 (5.5%)</text>
<text x="24" y="298" font-family="Apple SD Gothic Neo, Arial, sans-serif" font-size="13" fill="#333">브랜드 마케팅</text>
<rect x="260" y="284" width="247" height="18" rx="3" fill="#4f7cac"/>
<text x="515" y="298" font-family="Arial, sans-serif" font-size="12" fill="#333">651 (4.4%)</text>
<text x="24" y="328" font-family="Apple SD Gothic Neo, Arial, sans-serif" font-size="13" fill="#333">금융일반</text>
<rect x="260" y="314" width="225" height="18" rx="3" fill="#4f7cac"/>
<text x="493" y="328" font-family="Arial, sans-serif" font-size="12" fill="#333">593 (4.0%)</text>
<text x="24" y="358" font-family="Apple SD Gothic Neo, Arial, sans-serif" font-size="13" fill="#333">기획</text>
<rect x="260" y="344" width="208" height="18" rx="3" fill="#4f7cac"/>
<text x="476" y="358" font-family="Arial, sans-serif" font-size="12" fill="#333">547 (3.7%)</text>
<text x="24" y="388" font-family="Apple SD Gothic Neo, Arial, sans-serif" font-size="13" fill="#333">백엔드 개발</text>
<rect x="260" y="374" width="207" height="18" rx="3" fill="#4f7cac"/>
<text x="475" y="388" font-family="Arial, sans-serif" font-size="12" fill="#333">545 (3.7%)</text>
<text x="24" y="418" font-family="Apple SD Gothic Neo, Arial, sans-serif" font-size="13" fill="#333">건축·토목</text>
<rect x="260" y="404" width="151" height="18" rx="3" fill="#4f7cac"/>
<text x="419" y="418" font-family="Arial, sans-serif" font-size="12" fill="#333">398 (2.7%)</text>
<text x="24" y="448" font-family="Apple SD Gothic Neo, Arial, sans-serif" font-size="13" fill="#333">B2C 영업</text>
<rect x="260" y="434" width="151" height="18" rx="3" fill="#4f7cac"/>
<text x="419" y="448" font-family="Arial, sans-serif" font-size="12" fill="#333">398 (2.7%)</text>
<text x="24" y="478" font-family="Apple SD Gothic Neo, Arial, sans-serif" font-size="13" fill="#333">기계·항공</text>
<rect x="260" y="464" width="129" height="18" rx="3" fill="#4f7cac"/>
<text x="397" y="478" font-family="Arial, sans-serif" font-size="12" fill="#333">340 (2.3%)</text>
<text x="24" y="508" font-family="Apple SD Gothic Neo, Arial, sans-serif" font-size="13" fill="#333">인사</text>
<rect x="260" y="494" width="105" height="18" rx="3" fill="#4f7cac"/>
<text x="373" y="508" font-family="Arial, sans-serif" font-size="12" fill="#333">278 (1.9%)</text>
<text x="24" y="538" font-family="Apple SD Gothic Neo, Arial, sans-serif" font-size="13" fill="#333">품질관리</text>
<rect x="260" y="524" width="103" height="18" rx="3" fill="#4f7cac"/>
<text x="371" y="538" font-family="Arial, sans-serif" font-size="12" fill="#333">271 (1.8%)</text>
<text x="24" y="568" font-family="Apple SD Gothic Neo, Arial, sans-serif" font-size="13" fill="#333">SCM·물류</text>
<rect x="260" y="554" width="92" height="18" rx="3" fill="#4f7cac"/>
<text x="360" y="568" font-family="Arial, sans-serif" font-size="12" fill="#333">242 (1.6%)</text>
<text x="24" y="598" font-family="Apple SD Gothic Neo, Arial, sans-serif" font-size="13" fill="#333">클라우드·인프라</text>
<rect x="260" y="584" width="90" height="18" rx="3" fill="#4f7cac"/>
<text x="358" y="598" font-family="Arial, sans-serif" font-size="12" fill="#333">239 (1.6%)</text>
<text x="24" y="628" font-family="Apple SD Gothic Neo, Arial, sans-serif" font-size="13" fill="#333">재무·회계</text>
<rect x="260" y="614" width="81" height="18" rx="3" fill="#4f7cac"/>
<text x="349" y="628" font-family="Arial, sans-serif" font-size="12" fill="#333">215 (1.5%)</text>
<text x="24" y="658" font-family="Apple SD Gothic Neo, Arial, sans-serif" font-size="13" fill="#333">안전·환경</text>
<rect x="260" y="644" width="70" height="18" rx="3" fill="#4f7cac"/>
<text x="338" y="658" font-family="Arial, sans-serif" font-size="12" fill="#333">186 (1.3%)</text>
<text x="24" y="688" font-family="Apple SD Gothic Neo, Arial, sans-serif" font-size="13" fill="#333">장비 엔지니어</text>
<rect x="260" y="674" width="66" height="18" rx="3" fill="#4f7cac"/>
<text x="334" y="688" font-family="Arial, sans-serif" font-size="12" fill="#333">174 (1.2%)</text>
<text x="24" y="718" font-family="Apple SD Gothic Neo, Arial, sans-serif" font-size="13" fill="#333">데이터 분석</text>
<rect x="260" y="704" width="52" height="18" rx="3" fill="#4f7cac"/>
<text x="320" y="718" font-family="Arial, sans-serif" font-size="12" fill="#333">139 (0.9%)</text>
<text x="24" y="748" font-family="Apple SD Gothic Neo, Arial, sans-serif" font-size="13" fill="#333">구매</text>
<rect x="260" y="734" width="36" height="18" rx="3" fill="#4f7cac"/>
<text x="304" y="748" font-family="Arial, sans-serif" font-size="12" fill="#333">96 (0.6%)</text>
<text x="24" y="778" font-family="Apple SD Gothic Neo, Arial, sans-serif" font-size="13" fill="#333">AI·머신러닝</text>
<rect x="260" y="764" width="31" height="18" rx="3" fill="#4f7cac"/>
<text x="299" y="778" font-family="Arial, sans-serif" font-size="12" fill="#333">84 (0.6%)</text>
<text x="24" y="808" font-family="Apple SD Gothic Neo, Arial, sans-serif" font-size="13" fill="#333">디지털 마케팅</text>
<rect x="260" y="794" width="31" height="18" rx="3" fill="#4f7cac"/>
<text x="299" y="808" font-family="Arial, sans-serif" font-size="12" fill="#333">82 (0.6%)</text>
</svg>