<svg xmlns="http://www.w3.org/2000/svg" width="1100" height="860" viewBox="0 0 1100 860">
<rect width="100%" height="100%" fill="#ffffff"/>
<text x="24" y="36" font-family="Apple SD Gothic Neo, Arial, sans-serif" font-size="24" font-weight="700" fill="#222">기간</text>
<text x="24" y="58" font-family="Apple SD Gothic Neo, Arial, sans-serif" font-size="13" fill="#666">총 14,774건, 상위 25개 표시</text>
<text x="24" y="88" font-family="Apple SD Gothic Neo, Arial, sans-serif" font-size="13" fill="#333">2015 하반기</text>
<rect x="260" y="74" width="760" height="18" rx="3" fill="#4f7cac"/>
<text x="1028" y="88" font-family="Arial, sans-serif" font-size="12" fill="#333">1,733 (11.7%)</text>
<text x="24" y="118" font-family="Apple SD Gothic Neo, Arial, sans-serif" font-size="13" fill="#333">2016 하반기</text>
<rect x="260" y="104" width="599" height="18" rx="3" fill="#4f7cac"/>
<text x="867" y="118" font-family="Arial, sans-serif" font-size="12" fill="#333">1,368 (9.3%)</text>
<text x="24" y="148" font-family="Apple SD Gothic Neo, Arial, sans-serif" font-size="13" fill="#333">2020 하반기</text>
<rect x="260" y="134" width="517" height="18" rx="3" fill="#4f7cac"/>
<text x="785" y="148" font-family="Arial, sans-serif" font-size="12" fill="#333">1,181 (8.0%)</text>
<text x="24" y="178" font-family="Apple SD Gothic Neo, Arial, sans-serif" font-size="13" fill="#333">2017 상반기</text>
<rect x="260" y="164" width="453" height="18" rx="3" fill="#4f7cac"/>
<text x="721" y="178" font-family="Arial, sans-serif" font-size="12" fill="#333">1,035 (7.0%)</text>
<text x="24" y="208" font-family="Apple SD Gothic Neo, Arial, sans-serif" font-size="13" fill="#333">2018 하반기</text>
<rect x="260" y="194" width="406" height="18" rx="3" fill="#4f7cac"/>
<text x="674" y="208" font-family="Arial, sans-serif" font-size="12" fill="#333">928 (6.3%)</text>
<text x="24" y="238" font-family="Apple SD Gothic Neo, Arial, sans-serif" font-size="13" fill="#333">2021 상반기</text>
<rect x="260" y="224" width="380" height="18" rx="3" fill="#4f7cac"/>
<text x="648" y="238" font-family="Arial, sans-serif" font-size="12" fill="#333">867 (5.9%)</text>
<text x="24" y="268" font-family="Apple SD Gothic Neo, Arial, sans-serif" font-size="13" fill="#333">2018 상반기</text>
<rect x="260" y="254" width="354" height="18" rx="3" fill="#4f7cac"/>
<text x="622" y="268" font-family="Arial, sans-serif" font-size="12" fill="#333">809 (5.5%)</text>
<text x="24" y="298" font-family="Apple SD Gothic Neo, Arial, sans-serif" font-size="13" fill="#333">2020 상반기</text>
<rect x="260" y="284" width="287" height="18" rx="3" fill="#4f7cac"/>
<text x="555" y="298" font-family="Arial, sans-serif" font-size="12" fill="#333">655 (4.4%)</text>
<text x="24" y="328" font-family="Apple SD Gothic Neo, Arial, sans-serif" font-size="13" fill="#333">2017 하반기</text>
<rect x="260" y="314" width="279" height="18" rx="3" fill="#4f7cac"/>
<text x="547" y="328" font-family="Arial, sans-serif" font-size="12" fill="#333">638 (4.3%)</text>
<text x="24" y="358" font-family="Apple SD Gothic Neo, Arial, sans-serif" font-size="13" fill="#333">2022 하반기</text>
<rect x="260" y="344" width="254" height="18" rx="3" fill="#4f7cac"/>
<text x="522" y="358" font-family="Arial, sans-serif" font-size="12" fill="#333">581 (3.9%)</text>
<text x="24" y="388" font-family="Apple SD Gothic Neo, Arial, sans-serif" font-size="13" fill="#333">2019 상반기</text>
<rect x="260" y="374" width="226" height="18" rx="3" fill="#4f7cac"/>
<text x="494" y="388" font-family="Arial, sans-serif" font-size="12" fill="#333">517 (3.5%)</text>
<text x="24" y="418" font-family="Apple SD Gothic Neo, Arial, sans-serif" font-size="13" fill="#333">2022 상반기</text>
<rect x="260" y="404" width="223" height="18" rx="3" fill="#4f7cac"/>
<text x="491" y="418" font-family="Arial, sans-serif" font-size="12" fill="#333">510 (3.5%)</text>
<text x="24" y="448" font-family="Apple SD Gothic Neo, Arial, sans-serif" font-size="13" fill="#333">2024 하반기</text>
<rect x="260" y="434" width="217" height="18" rx="3" fill="#4f7cac"/>
<text x="485" y="448" font-family="Arial, sans-serif" font-size="12" fill="#333">497 (3.4%)</text>
<text x="24" y="478" font-family="Apple SD Gothic Neo, Arial, sans-serif" font-size="13" fill="#333">2024 상반기</text>
<rect x="260" y="464" width="217" height="18" rx="3" fill="#4f7cac"/>
<text x="485" y="478" font-family="Arial, sans-serif" font-size="12" fill="#333">496 (3.4%)</text>
<text x="24" y="508" font-family="Apple SD Gothic Neo, Arial, sans-serif" font-size="13" fill="#333">2019 하반기</text>
<rect x="260" y="494" width="211" height="18" rx="3" fill="#4f7cac"/>
<text x="479" y="508" font-family="Arial, sans-serif" font-size="12" fill="#333">482 (3.3%)</text>
<text x="24" y="538" font-family="Apple SD Gothic Neo, Arial, sans-serif" font-size="13" fill="#333">2023 상반기</text>
<rect x="260" y="524" width="206" height="18" rx="3" fill="#4f7cac"/>
<text x="474" y="538" font-family="Arial, sans-serif" font-size="12" fill="#333">471 (3.2%)</text>
<text x="24" y="568" font-family="Apple SD Gothic Neo, Arial, sans-serif" font-size="13" fill="#333">2021 하반기</text>
<rect x="260" y="554" width="200" height="18" rx="3" fill="#4f7cac"/>
<text x="468" y="568" font-family="Arial, sans-serif" font-size="12" fill="#333">457 (3.1%)</text>
<text x="24" y="598" font-family="Apple SD Gothic Neo, Arial, sans-serif" font-size="13" fill="#333">2016 상반기</text>
<rect x="260" y="584" width="186" height="18" rx="3" fill="#4f7cac"/>
<text x="454" y="598" font-family="Arial, sans-serif" font-size="12" fill="#333">426 (2.9%)</text>
<text x="24" y="628" font-family="Apple SD Gothic Neo, Arial, sans-serif" font-size="13" fill="#333">2023 하반기</text>
<rect x="260" y="614" width="178" height="18" rx="3" fill="#4f7cac"/>
<text x="446" y="628" font-family="Arial, sans-serif" font-size="12" fill="#333">407 (2.8%)</text>
<text x="24" y="658" font-family="Apple SD Gothic Neo, Arial, sans-serif" font-size="13" fill="#333">2025 상반기</text>
<rect x="260" y="644" width="142" height="18" rx="3" fill="#4f7cac"/>
<text x="410" y="658" font-family="Arial, sans-serif" font-size="12" fill="#333">325 (2.2%)</text>
<text x="24" y="688" font-family="Apple SD Gothic Neo, Arial, sans-serif" font-size="13" fill="#333">2025 하반기</text>
<rect x="260" y="674" width="84" height="18" rx="3" fill="#4f7cac"/>
<text x="352" y="688" font-family="Arial, sans-serif" font-size="12" fill="#333">193 (1.3%)</text>
<text x="24" y="718" font-family="Apple SD Gothic Neo, Arial, sans-serif" font-size="13" fill="#333">2015 상반기</text>
<rect x="260" y="704" width="54" height="18" rx="3" fill="#4f7cac"/>
<text x="322" y="718" font-family="Arial, sans-serif" font-size="12" fill="#333">124 (0.8%)</text>
<text x="24" y="748" font-family="Apple SD Gothic Neo, Arial, sans-serif" font-size="13" fill="#333">2026 상반기</text>
<rect x="260" y="734" width="14" height="18" rx="3" fill="#4f7cac"/>
<text x="282" y="748" font-family="Arial, sans-serif" font-size="12" fill="#333">33 (0.2%)</text>
<text x="24" y="778" font-family="Apple SD Gothic Neo, Arial, sans-serif" font-size="13" fill="#333">2014 하반기</text>
<rect x="260" y="764" width="10" height="18" rx="3" fill="#4f7cac"/>
<text x="278" y="778" font-family="Arial, sans-serif" font-size="12" fill="#333">23 (0.2%)</text>
<text x="24" y="808" font-family="Apple SD Gothic Neo, Arial, sans-serif" font-size="13" fill="#333">2014 상반기</text>
<rect x="260" y="794" width="3" height="18" rx="3" fill="#4f7cac"/>
<text x="271" y="808" font-family="Arial, sans-serif" font-size="12" fill="#333">9 (0.1%)</text>
</svg>