<svg xmlns="http://www.w3.org/2000/svg" width="1160" height="620" viewBox="0 0 1160 620">
<rect width="100%" height="100%" fill="#ffffff"/>
<text x="90" y="36" font-family="Arial, sans-serif" font-size="24" font-weight="700" fill="#1f2937">Composite Score by Context Length</text>
<text x="90" y="60" font-family="Arial, sans-serif" font-size="13" fill="#6b7280">Composite emphasizes label hit@5, medium hit@5, and MRR. Best is highlighted.</text>
<line x1="90" y1="490.0" x2="1118" y2="490.0" stroke="#edf0f5"/>
<text x="78" y="494.0" text-anchor="end" font-family="Arial, sans-serif" font-size="11" fill="#6b7280">0.00</text>
<line x1="90" y1="431.1" x2="1118" y2="431.1" stroke="#edf0f5"/>
<text x="78" y="435.1" text-anchor="end" font-family="Arial, sans-serif" font-size="11" fill="#6b7280">0.10</text>
<line x1="90" y1="372.3" x2="1118" y2="372.3" stroke="#edf0f5"/>
<text x="78" y="376.3" text-anchor="end" font-family="Arial, sans-serif" font-size="11" fill="#6b7280">0.21</text>
<line x1="90" y1="313.4" x2="1118" y2="313.4" stroke="#edf0f5"/>
<text x="78" y="317.4" text-anchor="end" font-family="Arial, sans-serif" font-size="11" fill="#6b7280">0.31</text>
<line x1="90" y1="254.6" x2="1118" y2="254.6" stroke="#edf0f5"/>
<text x="78" y="258.6" text-anchor="end" font-family="Arial, sans-serif" font-size="11" fill="#6b7280">0.41</text>
<line x1="90" y1="195.7" x2="1118" y2="195.7" stroke="#edf0f5"/>
<text x="78" y="199.7" text-anchor="end" font-family="Arial, sans-serif" font-size="11" fill="#6b7280">0.52</text>
<line x1="90" y1="136.9" x2="1118" y2="136.9" stroke="#edf0f5"/>
<text x="78" y="140.9" text-anchor="end" font-family="Arial, sans-serif" font-size="11" fill="#6b7280">0.62</text>
<line x1="90" y1="78.0" x2="1118" y2="78.0" stroke="#edf0f5"/>
<text x="78" y="82.0" text-anchor="end" font-family="Arial, sans-serif" font-size="11" fill="#6b7280">0.72</text>
<line x1="90" y1="78" x2="90" y2="490" stroke="#9ca3af"/>
<line x1="90" y1="490" x2="1118" y2="490" stroke="#9ca3af"/>
<rect x="90.0" y="78.0" width="57.7" height="412.0" fill="#db3a34" rx="3"/>
<text x="118.8" y="72.0" text-anchor="middle" font-family="Arial, sans-serif" font-size="10" fill="#374151">0.723</text>
<text x="118.8" y="508" text-anchor="middle" font-family="Arial, sans-serif" font-size="10" fill="#374151">300</text>
<text x="118.8" y="524" text-anchor="middle" font-family="Arial, sans-serif" font-size="10" fill="#6b7280">bigram</text>
<rect x="154.7" y="83.2" width="57.7" height="406.8" fill="#6366f1" rx="3"/>
<text x="183.5" y="77.2" text-anchor="middle" font-family="Arial, sans-serif" font-size="10" fill="#374151">0.714</text>
<text x="183.5" y="508" text-anchor="middle" font-family="Arial, sans-serif" font-size="10" fill="#374151">400</text>
<text x="183.5" y="524" text-anchor="middle" font-family="Arial, sans-serif" font-size="10" fill="#6b7280">bigram</text>
<rect x="219.4" y="114.5" width="57.7" height="375.5" fill="#6366f1" rx="3"/>
<text x="248.2" y="108.5" text-anchor="middle" font-family="Arial, sans-serif" font-size="10" fill="#374151">0.659</text>
<text x="248.2" y="508" text-anchor="middle" font-family="Arial, sans-serif" font-size="10" fill="#374151">500</text>
<text x="248.2" y="524" text-anchor="middle" font-family="Arial, sans-serif" font-size="10" fill="#6b7280">bigram</text>
<rect x="284.1" y="117.5" width="57.7" height="372.5" fill="#6366f1" rx="3"/>
<text x="312.9" y="111.5" text-anchor="middle" font-family="Arial, sans-serif" font-size="10" fill="#374151">0.654</text>
<text x="312.9" y="508" text-anchor="middle" font-family="Arial, sans-serif" font-size="10" fill="#374151">600</text>
<text x="312.9" y="524" text-anchor="middle" font-family="Arial, sans-serif" font-size="10" fill="#6b7280">bigram</text>
<rect x="348.8" y="113.4" width="57.7" height="376.6" fill="#6366f1" rx="3"/>
<text x="377.6" y="107.4" text-anchor="middle" font-family="Arial, sans-serif" font-size="10" fill="#374151">0.661</text>
<text x="377.6" y="508" text-anchor="middle" font-family="Arial, sans-serif" font-size="10" fill="#374151">700</text>
<text x="377.6" y="524" text-anchor="middle" font-family="Arial, sans-serif" font-size="10" fill="#6b7280">bigram</text>
<rect x="413.4" y="99.8" width="57.7" height="390.2" fill="#6366f1" rx="3"/>
<text x="442.3" y="93.8" text-anchor="middle" font-family="Arial, sans-serif" font-size="10" fill="#374151">0.685</text>
<text x="442.3" y="508" text-anchor="middle" font-family="Arial, sans-serif" font-size="10" fill="#374151">800</text>
<text x="442.3" y="524" text-anchor="middle" font-family="Arial, sans-serif" font-size="10" fill="#6b7280">bigram</text>
<rect x="478.1" y="86.1" width="57.7" height="403.9" fill="#6366f1" rx="3"/>
<text x="507.0" y="80.1" text-anchor="middle" font-family="Arial, sans-serif" font-size="10" fill="#374151">0.709</text>
<text x="507.0" y="508" text-anchor="middle" font-family="Arial, sans-serif" font-size="10" fill="#374151">900</text>
<text x="507.0" y="524" text-anchor="middle" font-family="Arial, sans-serif" font-size="10" fill="#6b7280">bigram</text>
<rect x="542.8" y="96.0" width="57.7" height="394.0" fill="#6366f1" rx="3"/>
<text x="571.7" y="90.0" text-anchor="middle" font-family="Arial, sans-serif" font-size="10" fill="#374151">0.691</text>
<text x="571.7" y="508" text-anchor="middle" font-family="Arial, sans-serif" font-size="10" fill="#374151">1000</text>
<text x="571.7" y="524" text-anchor="middle" font-family="Arial, sans-serif" font-size="10" fill="#6b7280">bigram</text>
<rect x="607.5" y="114.5" width="57.7" height="375.5" fill="#60a5fa" rx="3"/>
<text x="636.3" y="108.5" text-anchor="middle" font-family="Arial, sans-serif" font-size="10" fill="#374151">0.659</text>
<text x="636.3" y="508" text-anchor="middle" font-family="Arial, sans-serif" font-size="10" fill="#374151">300</text>
<text x="636.3" y="524" text-anchor="middle" font-family="Arial, sans-serif" font-size="10" fill="#6b7280">unigram</text>
<rect x="672.2" y="141.4" width="57.7" height="348.6" fill="#60a5fa" rx="3"/>
<text x="701.0" y="135.4" text-anchor="middle" font-family="Arial, sans-serif" font-size="10" fill="#374151">0.612</text>
<text x="701.0" y="508" text-anchor="middle" font-family="Arial, sans-serif" font-size="10" fill="#374151">400</text>
<text x="701.0" y="524" text-anchor="middle" font-family="Arial, sans-serif" font-size="10" fill="#6b7280">unigram</text>
<rect x="736.9" y="138.3" width="57.7" height="351.7" fill="#60a5fa" rx="3"/>
<text x="765.7" y="132.3" text-anchor="middle" font-family="Arial, sans-serif" font-size="10" fill="#374151">0.617</text>
<text x="765.7" y="508" text-anchor="middle" font-family="Arial, sans-serif" font-size="10" fill="#374151">500</text>
<text x="765.7" y="524" text-anchor="middle" font-family="Arial, sans-serif" font-size="10" fill="#6b7280">unigram</text>
<rect x="801.6" y="134.9" width="57.7" height="355.1" fill="#60a5fa" rx="3"/>
<text x="830.4" y="128.9" text-anchor="middle" font-family="Arial, sans-serif" font-size="10" fill="#374151">0.623</text>
<text x="830.4" y="508" text-anchor="middle" font-family="Arial, sans-serif" font-size="10" fill="#374151">600</text>
<text x="830.4" y="524" text-anchor="middle" font-family="Arial, sans-serif" font-size="10" fill="#6b7280">unigram</text>
<rect x="866.2" y="178.7" width="57.7" height="311.3" fill="#60a5fa" rx="3"/>
<text x="895.1" y="172.7" text-anchor="middle" font-family="Arial, sans-serif" font-size="10" fill="#374151">0.546</text>
<text x="895.1" y="508" text-anchor="middle" font-family="Arial, sans-serif" font-size="10" fill="#374151">700</text>
<text x="895.1" y="524" text-anchor="middle" font-family="Arial, sans-serif" font-size="10" fill="#6b7280">unigram</text>
<rect x="930.9" y="171.3" width="57.7" height="318.7" fill="#60a5fa" rx="3"/>
<text x="959.8" y="165.3" text-anchor="middle" font-family="Arial, sans-serif" font-size="10" fill="#374151">0.559</text>
<text x="959.8" y="508" text-anchor="middle" font-family="Arial, sans-serif" font-size="10" fill="#374151">800</text>
<text x="959.8" y="524" text-anchor="middle" font-family="Arial, sans-serif" font-size="10" fill="#6b7280">unigram</text>
<rect x="995.6" y="157.5" width="57.7" height="332.5" fill="#60a5fa" rx="3"/>
<text x="1024.5" y="151.5" text-anchor="middle" font-family="Arial, sans-serif" font-size="10" fill="#374151">0.584</text>
<text x="1024.5" y="508" text-anchor="middle" font-family="Arial, sans-serif" font-size="10" fill="#374151">900</text>
<text x="1024.5" y="524" text-anchor="middle" font-family="Arial, sans-serif" font-size="10" fill="#6b7280">unigram</text>
<rect x="1060.3" y="142.4" width="57.7" height="347.6" fill="#60a5fa" rx="3"/>
<text x="1089.2" y="136.4" text-anchor="middle" font-family="Arial, sans-serif" font-size="10" fill="#374151">0.610</text>
<text x="1089.2" y="508" text-anchor="middle" font-family="Arial, sans-serif" font-size="10" fill="#374151">1000</text>
<text x="1089.2" y="524" text-anchor="middle" font-family="Arial, sans-serif" font-size="10" fill="#6b7280">unigram</text>
<text x="580.0" y="584" text-anchor="middle" font-family="Arial, sans-serif" font-size="13" fill="#374151">Context chars and token mode</text>
<text x="900" y="88" font-family="Arial, sans-serif" font-size="13" font-weight="700" fill="#db3a34">Best: 300 chars / bigram</text>
</svg>